<mxfile host="65bd71144e" scale="2" border="0">
    <diagram id="z8-gipXLpXiGRJ3XNDHW" name="Page-1">
        <mxGraphModel dx="1117" dy="762" grid="0" gridSize="10" guides="1" tooltips="1" connect="1" arrows="1" fold="1" page="1" pageScale="1" pageWidth="850" pageHeight="1100" background="#ffffff" math="0" shadow="1">
            <root>
                <mxCell id="0"/>
                <mxCell id="1" parent="0"/>
                <mxCell id="166" value="" style="rounded=0;whiteSpace=wrap;html=1;fontSize=12;fontColor=#333333;fillColor=none;strokeColor=#666666;" parent="1" vertex="1">
                    <mxGeometry x="160" y="815" width="223" height="236" as="geometry"/>
                </mxCell>
                <mxCell id="2" value="GUI" style="swimlane;whiteSpace=wrap;html=1;fillColor=#f5f5f5;fontColor=#333333;strokeColor=#666666;" parent="1" vertex="1">
                    <mxGeometry x="1901" y="379" width="150" height="407" as="geometry"/>
                </mxCell>
                <mxCell id="3" value="Real-Time Visualization" style="rounded=0;whiteSpace=wrap;html=1;fillColor=#dae8fc;strokeColor=#6c8ebf;fontColor=#000000;" parent="2" vertex="1">
                    <mxGeometry x="20" y="39" width="110" height="51" as="geometry"/>
                </mxCell>
                <mxCell id="4" value="Scheduler&lt;br&gt;Interface" style="rounded=0;whiteSpace=wrap;html=1;fillColor=#dae8fc;strokeColor=#6c8ebf;fontColor=#000000;" parent="2" vertex="1">
                    <mxGeometry x="20" y="160" width="110" height="50" as="geometry"/>
                </mxCell>
                <mxCell id="63" value="Ground Track" style="rounded=0;whiteSpace=wrap;html=1;fillColor=#dae8fc;strokeColor=#6c8ebf;fontColor=#000000;" parent="2" vertex="1">
                    <mxGeometry x="20" y="100" width="110" height="50" as="geometry"/>
                </mxCell>
                <mxCell id="65" value="Command&lt;br&gt;Interface" style="rounded=0;whiteSpace=wrap;html=1;fillColor=#dae8fc;strokeColor=#6c8ebf;fontColor=#000000;" parent="2" vertex="1">
                    <mxGeometry x="20" y="220" width="110" height="50" as="geometry"/>
                </mxCell>
                <mxCell id="66" value="Mission Planer&lt;br&gt;Interface" style="rounded=0;whiteSpace=wrap;html=1;fillColor=#dae8fc;strokeColor=#6c8ebf;fontColor=#000000;" parent="2" vertex="1">
                    <mxGeometry x="20" y="280" width="110" height="50" as="geometry"/>
                </mxCell>
                <mxCell id="209" value="File Viewer" style="rounded=0;whiteSpace=wrap;html=1;fillColor=#dae8fc;strokeColor=#6c8ebf;fontColor=#000000;" vertex="1" parent="2">
                    <mxGeometry x="20" y="340" width="110" height="50" as="geometry"/>
                </mxCell>
                <mxCell id="9" value="RoSatProcessor" style="swimlane;whiteSpace=wrap;html=1;fillColor=#f5f5f5;fontColor=#333333;strokeColor=#666666;" parent="1" vertex="1">
                    <mxGeometry x="1055" y="379" width="677" height="672" as="geometry"/>
                </mxCell>
                <mxCell id="5" value="Data Processing Handler" style="swimlane;whiteSpace=wrap;html=1;fillColor=#f5f5f5;fontColor=#333333;strokeColor=#666666;" parent="9" vertex="1">
                    <mxGeometry x="33" y="40" width="260" height="230" as="geometry"/>
                </mxCell>
                <mxCell id="6" value="Image&lt;br&gt;Decoder" style="rounded=0;whiteSpace=wrap;html=1;fillColor=#ffe6cc;strokeColor=#d79b00;fontColor=#000000;" parent="5" vertex="1">
                    <mxGeometry x="127" y="40" width="120" height="50" as="geometry"/>
                </mxCell>
                <mxCell id="7" value="Beacon&lt;br&gt;Decoder" style="rounded=0;whiteSpace=wrap;html=1;fillColor=#ffe6cc;strokeColor=#d79b00;fontColor=#000000;" parent="5" vertex="1">
                    <mxGeometry x="127" y="100" width="120" height="50" as="geometry"/>
                </mxCell>
                <mxCell id="11" value="HouseKeeping&lt;br&gt;FileDecoder" style="rounded=0;whiteSpace=wrap;html=1;fillColor=#ffe6cc;strokeColor=#d79b00;fontColor=#000000;" parent="5" vertex="1">
                    <mxGeometry x="127" y="163" width="120" height="50" as="geometry"/>
                </mxCell>
                <mxCell id="99" style="edgeStyle=none;html=1;fontColor=#000000;fillColor=#76608a;strokeColor=#432D57;dashed=1;dashPattern=1 1;" parent="5" source="92" target="7" edge="1">
                    <mxGeometry relative="1" as="geometry"/>
                </mxCell>
                <mxCell id="92" value="WebSocket&lt;div&gt;Connector&lt;/div&gt;" style="rounded=0;whiteSpace=wrap;html=1;fillColor=#ffe6cc;strokeColor=#d79b00;fontColor=#000000;" parent="5" vertex="1">
                    <mxGeometry x="12" y="40" width="95" height="174" as="geometry"/>
                </mxCell>
                <mxCell id="123" style="edgeStyle=none;html=1;fontColor=#000000;fillColor=#76608a;strokeColor=#432D57;dashed=1;dashPattern=1 1;" parent="5" edge="1">
                    <mxGeometry relative="1" as="geometry">
                        <mxPoint x="107" y="65.14490196078442" as="sourcePoint"/>
                        <mxPoint x="127" y="64.83117647058829" as="targetPoint"/>
                    </mxGeometry>
                </mxCell>
                <mxCell id="124" style="edgeStyle=none;html=1;fontColor=#000000;fillColor=#76608a;strokeColor=#432D57;dashed=1;dashPattern=1 1;" parent="5" edge="1">
                    <mxGeometry relative="1" as="geometry">
                        <mxPoint x="107" y="188.1449019607844" as="sourcePoint"/>
                        <mxPoint x="127" y="187.83117647058828" as="targetPoint"/>
                    </mxGeometry>
                </mxCell>
                <mxCell id="71" style="edgeStyle=none;rounded=0;html=1;entryX=0;entryY=0.5;entryDx=0;entryDy=0;startArrow=classic;startFill=1;fillColor=#76608a;strokeColor=#432D57;dashed=1;dashPattern=1 1;" parent="9" source="48" target="68" edge="1">
                    <mxGeometry relative="1" as="geometry"/>
                </mxCell>
                <mxCell id="48" value="Command Handler" style="swimlane;whiteSpace=wrap;html=1;fillColor=#f5f5f5;fontColor=#333333;strokeColor=#666666;" parent="9" vertex="1">
                    <mxGeometry x="33" y="297" width="260" height="231" as="geometry"/>
                </mxCell>
                <mxCell id="8" value="Telecommand&lt;br&gt;Encoder" style="rounded=0;whiteSpace=wrap;html=1;fillColor=#dae8fc;strokeColor=#6c8ebf;fontColor=#000000;" parent="48" vertex="1">
                    <mxGeometry x="127.75" y="96" width="120" height="50" as="geometry"/>
                </mxCell>
                <mxCell id="59" value="CommandRotor&lt;br&gt;Controller" style="rounded=0;whiteSpace=wrap;html=1;fillColor=#ffe6cc;strokeColor=#d79b00;fontColor=#000000;" parent="48" vertex="1">
                    <mxGeometry x="12.25" y="157" width="235.5" height="65" as="geometry"/>
                </mxCell>
                <mxCell id="119" value="PacketTransmit&lt;br&gt;Queue" style="rounded=0;whiteSpace=wrap;html=1;fillColor=#ffe6cc;strokeColor=#d79b00;fontColor=#000000;" parent="48" vertex="1">
                    <mxGeometry x="12.25" y="37" width="95" height="109" as="geometry"/>
                </mxCell>
                <mxCell id="130" style="edgeStyle=none;rounded=0;html=1;entryX=1;entryY=0.783;entryDx=0;entryDy=0;entryPerimeter=0;fontColor=#000000;endArrow=classic;endFill=1;fillColor=#76608a;strokeColor=#432D57;dashed=1;dashPattern=1 1;" parent="48" source="8" target="119" edge="1">
                    <mxGeometry relative="1" as="geometry"/>
                </mxCell>
                <mxCell id="127" value="File&lt;br&gt;Encoder" style="rounded=0;whiteSpace=wrap;html=1;fillColor=#dae8fc;strokeColor=#6c8ebf;fontColor=#000000;" parent="48" vertex="1">
                    <mxGeometry x="127.75" y="37" width="120" height="50" as="geometry"/>
                </mxCell>
                <mxCell id="131" style="edgeStyle=none;rounded=0;html=1;entryX=1;entryY=0.783;entryDx=0;entryDy=0;entryPerimeter=0;fontColor=#000000;endArrow=classic;endFill=1;fillColor=#76608a;strokeColor=#432D57;dashed=1;dashPattern=1 1;" parent="48" edge="1">
                    <mxGeometry relative="1" as="geometry">
                        <mxPoint x="127.25" y="61.80024999999978" as="sourcePoint"/>
                        <mxPoint x="107.25" y="62.136999999999944" as="targetPoint"/>
                    </mxGeometry>
                </mxCell>
                <mxCell id="68" value="Mission Planer" style="swimlane;whiteSpace=wrap;html=1;fillColor=#f5f5f5;fontColor=#333333;strokeColor=#666666;" parent="9" vertex="1">
                    <mxGeometry x="326" y="297.5" width="160" height="231.5" as="geometry"/>
                </mxCell>
                <mxCell id="69" value="Schedule" style="rounded=0;whiteSpace=wrap;html=1;fillColor=#dae8fc;strokeColor=#6c8ebf;fontColor=#000000;" parent="68" vertex="1">
                    <mxGeometry x="20" y="40" width="120" height="50" as="geometry"/>
                </mxCell>
                <mxCell id="72" value="Command" style="rounded=0;whiteSpace=wrap;html=1;fillColor=#dae8fc;strokeColor=#6c8ebf;fontColor=#000000;" parent="68" vertex="1">
                    <mxGeometry x="20" y="100" width="120" height="50" as="geometry"/>
                </mxCell>
                <mxCell id="70" style="edgeStyle=none;rounded=0;html=1;entryX=1;entryY=0.5;entryDx=0;entryDy=0;startArrow=classic;startFill=1;fillColor=#76608a;strokeColor=#432D57;dashed=1;dashPattern=1 1;" parent="9" source="10" target="5" edge="1">
                    <mxGeometry relative="1" as="geometry"/>
                </mxCell>
                <mxCell id="10" value="DB" style="swimlane;whiteSpace=wrap;html=1;fillColor=#f5f5f5;fontColor=#333333;strokeColor=#666666;" parent="9" vertex="1">
                    <mxGeometry x="326" y="40" width="160" height="230" as="geometry"/>
                </mxCell>
                <mxCell id="53" value="Telemetry DB" style="rounded=0;whiteSpace=wrap;html=1;fillColor=#dae8fc;strokeColor=#6c8ebf;fontColor=#000000;" parent="10" vertex="1">
                    <mxGeometry x="20" y="40" width="120" height="50" as="geometry"/>
                </mxCell>
                <mxCell id="60" value="Logger DB" style="rounded=0;whiteSpace=wrap;html=1;fillColor=#dae8fc;strokeColor=#6c8ebf;fontColor=#000000;" parent="10" vertex="1">
                    <mxGeometry x="20" y="100" width="120" height="50" as="geometry"/>
                </mxCell>
                <mxCell id="67" value="Schedule DB" style="rounded=0;whiteSpace=wrap;html=1;fillColor=#dae8fc;strokeColor=#6c8ebf;fontColor=#000000;" parent="10" vertex="1">
                    <mxGeometry x="20" y="160" width="120" height="50" as="geometry"/>
                </mxCell>
                <mxCell id="83" value="RoSatParser" style="swimlane;whiteSpace=wrap;html=1;fillColor=#f5f5f5;fontColor=#333333;strokeColor=#666666;" parent="9" vertex="1">
                    <mxGeometry x="33.5" y="546" width="259" height="107" as="geometry"/>
                </mxCell>
                <mxCell id="85" value="FIDL&lt;br&gt;Parser" style="rounded=0;whiteSpace=wrap;html=1;fillColor=#dae8fc;strokeColor=#6c8ebf;fontColor=#000000;" parent="83" vertex="1">
                    <mxGeometry x="11" y="40" width="109" height="50" as="geometry"/>
                </mxCell>
                <mxCell id="86" value="Packet Data&lt;br&gt;Parser" style="rounded=0;whiteSpace=wrap;html=1;fillColor=#dae8fc;strokeColor=#6c8ebf;fontColor=#000000;" parent="83" vertex="1">
                    <mxGeometry x="128" y="40" width="119" height="50" as="geometry"/>
                </mxCell>
                <mxCell id="151" value="" style="endArrow=none;dashed=1;html=1;rounded=0;strokeColor=#4D4D4D;fontColor=#000000;" parent="9" edge="1">
                    <mxGeometry width="50" height="50" relative="1" as="geometry">
                        <mxPoint x="1.5" y="537" as="sourcePoint"/>
                        <mxPoint x="676" y="537" as="targetPoint"/>
                    </mxGeometry>
                </mxCell>
                <mxCell id="188" value="Interface" style="swimlane;whiteSpace=wrap;html=1;fillColor=#f5f5f5;fontColor=#333333;strokeColor=#666666;" parent="9" vertex="1">
                    <mxGeometry x="519" y="40" width="127" height="488" as="geometry"/>
                </mxCell>
                <mxCell id="191" value="Query&lt;div&gt;Response&lt;/div&gt;&lt;div&gt;Sender&lt;/div&gt;" style="rounded=0;whiteSpace=wrap;html=1;fillColor=#ffe6cc;strokeColor=#d79b00;fontColor=#000000;" parent="188" vertex="1">
                    <mxGeometry x="20" y="40" width="89" height="170" as="geometry"/>
                </mxCell>
                <mxCell id="196" value="Query&lt;div&gt;Request&lt;/div&gt;&lt;div&gt;Handler&lt;/div&gt;" style="rounded=0;whiteSpace=wrap;html=1;fillColor=#ffe6cc;strokeColor=#d79b00;fontColor=#000000;" parent="188" vertex="1">
                    <mxGeometry x="20" y="297" width="87" height="174" as="geometry"/>
                </mxCell>
                <mxCell id="192" style="edgeStyle=none;rounded=0;html=1;entryX=1;entryY=0.5;entryDx=0;entryDy=0;startArrow=classic;startFill=1;fillColor=#76608a;strokeColor=#432D57;dashed=1;dashPattern=1 1;exitX=0;exitY=0.5;exitDx=0;exitDy=0;" parent="188" source="191" edge="1">
                    <mxGeometry relative="1" as="geometry">
                        <mxPoint x="18" y="125.11000000000001" as="sourcePoint"/>
                        <mxPoint x="-34" y="124.81000000000006" as="targetPoint"/>
                    </mxGeometry>
                </mxCell>
                <mxCell id="197" style="edgeStyle=none;rounded=0;html=1;entryX=1;entryY=0.5;entryDx=0;entryDy=0;startArrow=classic;startFill=1;fillColor=#76608a;strokeColor=#432D57;dashed=1;dashPattern=1 1;exitX=0;exitY=0.5;exitDx=0;exitDy=0;" parent="188" edge="1">
                    <mxGeometry relative="1" as="geometry">
                        <mxPoint x="20" y="380.19000000000005" as="sourcePoint"/>
                        <mxPoint x="-34" y="380" as="targetPoint"/>
                    </mxGeometry>
                </mxCell>
                <mxCell id="207" value="REP" style="text;html=1;strokeColor=none;fillColor=none;align=center;verticalAlign=middle;whiteSpace=wrap;rounded=0;fontColor=#000000;fontSize=10;" parent="9" vertex="1">
                    <mxGeometry x="646" y="419" width="31" height="30" as="geometry"/>
                </mxCell>
                <mxCell id="202" value="REQ" style="text;html=1;strokeColor=none;fillColor=none;align=center;verticalAlign=middle;whiteSpace=wrap;rounded=0;fontColor=#000000;fontSize=10;" parent="9" vertex="1">
                    <mxGeometry x="646" y="161" width="31" height="30" as="geometry"/>
                </mxCell>
                <mxCell id="262" style="edgeStyle=none;html=1;exitX=0;exitY=0.5;exitDx=0;exitDy=0;entryX=0;entryY=0.75;entryDx=0;entryDy=0;" edge="1" parent="9" source="119" target="92">
                    <mxGeometry relative="1" as="geometry">
                        <Array as="points">
                            <mxPoint x="11" y="389"/>
                            <mxPoint x="11" y="211"/>
                        </Array>
                    </mxGeometry>
                </mxCell>
                <mxCell id="12" value="Physical Layer" style="swimlane;whiteSpace=wrap;html=1;swimlaneFillColor=none;fillColor=#f5f5f5;fontColor=#333333;strokeColor=#666666;" parent="1" vertex="1">
                    <mxGeometry x="160" y="380" width="250" height="325" as="geometry"/>
                </mxCell>
                <mxCell id="13" value="Antenna" style="rounded=0;whiteSpace=wrap;html=1;fillColor=#fff2cc;strokeColor=#d6b656;fontColor=#000000;" parent="12" vertex="1">
                    <mxGeometry x="20" y="40" width="75" height="160" as="geometry"/>
                </mxCell>
                <mxCell id="14" value="Rotor&lt;br&gt;Controller" style="rounded=0;whiteSpace=wrap;html=1;fillColor=#fff2cc;strokeColor=#d6b656;fontColor=#000000;" parent="12" vertex="1">
                    <mxGeometry x="20" y="254" width="100" height="50" as="geometry"/>
                </mxCell>
                <mxCell id="17" value="USRP" style="rounded=0;whiteSpace=wrap;html=1;fillColor=#fff2cc;strokeColor=#d6b656;fontColor=#000000;" parent="12" vertex="1">
                    <mxGeometry x="115" y="40" width="115" height="160" as="geometry"/>
                </mxCell>
                <mxCell id="18" value="UHF Up/Dwn&lt;br&gt;Switcher" style="rounded=0;whiteSpace=wrap;html=1;fillColor=#fff2cc;strokeColor=#d6b656;fontColor=#000000;" parent="12" vertex="1">
                    <mxGeometry x="130" y="254" width="100" height="50" as="geometry"/>
                </mxCell>
                <mxCell id="19" value="S-Band CH." style="rounded=0;whiteSpace=wrap;html=1;fillColor=#d5e8d4;strokeColor=#82b366;fontStyle=0;fontColor=#000000;" parent="12" vertex="1">
                    <mxGeometry x="127.5" y="55" width="90" height="30" as="geometry"/>
                </mxCell>
                <mxCell id="20" value="UHF CH." style="rounded=0;whiteSpace=wrap;html=1;fillColor=#d5e8d4;strokeColor=#82b366;fontStyle=0;fontColor=#000000;" parent="12" vertex="1">
                    <mxGeometry x="127.5" y="150" width="90" height="30" as="geometry"/>
                </mxCell>
                <mxCell id="15" value="PST Rotator" style="swimlane;whiteSpace=wrap;html=1;fillColor=#f5f5f5;fontColor=#333333;strokeColor=#666666;" parent="1" vertex="1">
                    <mxGeometry x="440" y="719" width="160" height="110" as="geometry"/>
                </mxCell>
                <mxCell id="16" value="Elevator&lt;br&gt;&amp;amp; Azimuth" style="rounded=0;whiteSpace=wrap;html=1;fillColor=#dae8fc;strokeColor=#6c8ebf;fontColor=#000000;" parent="15" vertex="1">
                    <mxGeometry x="20" y="42.5" width="120" height="50" as="geometry"/>
                </mxCell>
                <mxCell id="22" value="Signal Processing(GNU-Radio)" style="swimlane;whiteSpace=wrap;html=1;fillColor=#f5f5f5;fontColor=#333333;strokeColor=#666666;" parent="1" vertex="1">
                    <mxGeometry x="440" y="380" width="419" height="326" as="geometry"/>
                </mxCell>
                <mxCell id="39" style="edgeStyle=none;rounded=0;html=1;fillColor=#e51400;strokeColor=#B20000;" parent="22" source="23" target="24" edge="1">
                    <mxGeometry relative="1" as="geometry"/>
                </mxCell>
                <mxCell id="23" value="S-band&lt;br&gt;Demodulator" style="rounded=0;whiteSpace=wrap;html=1;fillColor=#dae8fc;strokeColor=#6c8ebf;fontColor=#000000;" parent="22" vertex="1">
                    <mxGeometry x="40" y="45" width="120" height="50" as="geometry"/>
                </mxCell>
                <mxCell id="24" value="S-band&lt;br&gt;Deframer" style="rounded=0;whiteSpace=wrap;html=1;fillColor=#dae8fc;strokeColor=#6c8ebf;fontColor=#000000;" parent="22" vertex="1">
                    <mxGeometry x="180" y="45" width="110" height="50" as="geometry"/>
                </mxCell>
                <mxCell id="40" style="edgeStyle=none;rounded=0;html=1;fillColor=#e51400;strokeColor=#B20000;" parent="22" source="25" target="30" edge="1">
                    <mxGeometry relative="1" as="geometry"/>
                </mxCell>
                <mxCell id="25" value="UHF&lt;br&gt;Demodulator" style="rounded=0;whiteSpace=wrap;html=1;fillColor=#dae8fc;strokeColor=#6c8ebf;fontColor=#000000;" parent="22" vertex="1">
                    <mxGeometry x="40" y="110" width="120" height="50" as="geometry"/>
                </mxCell>
                <mxCell id="29" value="UHF&lt;br&gt;Modulator" style="rounded=0;whiteSpace=wrap;html=1;fillColor=#dae8fc;strokeColor=#6c8ebf;fontColor=#000000;" parent="22" vertex="1">
                    <mxGeometry x="40" y="170" width="120" height="50" as="geometry"/>
                </mxCell>
                <mxCell id="30" value="UHF&lt;br&gt;Deframer" style="rounded=0;whiteSpace=wrap;html=1;fillColor=#dae8fc;strokeColor=#6c8ebf;fontColor=#000000;" parent="22" vertex="1">
                    <mxGeometry x="180" y="110" width="110" height="50" as="geometry"/>
                </mxCell>
                <mxCell id="41" style="edgeStyle=none;rounded=0;html=1;entryX=1;entryY=0.5;entryDx=0;entryDy=0;fillColor=#e3c800;strokeColor=#B09500;" parent="22" source="31" target="29" edge="1">
                    <mxGeometry relative="1" as="geometry"/>
                </mxCell>
                <mxCell id="31" value="UHF&lt;br&gt;Framer" style="rounded=0;whiteSpace=wrap;html=1;fillColor=#dae8fc;strokeColor=#6c8ebf;fontColor=#000000;" parent="22" vertex="1">
                    <mxGeometry x="180" y="170" width="110" height="50" as="geometry"/>
                </mxCell>
                <mxCell id="211" value="GNU-Radio&lt;div&gt;Handler&lt;/div&gt;" style="rounded=0;whiteSpace=wrap;html=1;fillColor=#d5e8d4;strokeColor=#82b366;fontStyle=0;fontColor=#000000;" vertex="1" parent="22">
                    <mxGeometry x="317" y="45" width="90" height="251" as="geometry"/>
                </mxCell>
                <mxCell id="147" value="&lt;b&gt;&lt;i&gt;&lt;font color=&quot;#000000&quot;&gt;USB Serial&lt;/font&gt;&lt;/i&gt;&lt;/b&gt;" style="text;html=1;strokeColor=none;fillColor=none;align=center;verticalAlign=middle;whiteSpace=wrap;rounded=0;fontColor=#990000;" parent="22" vertex="1">
                    <mxGeometry x="91" y="251" width="89" height="30" as="geometry"/>
                </mxCell>
                <mxCell id="213" style="edgeStyle=none;rounded=0;html=1;entryX=1;entryY=0.5;entryDx=0;entryDy=0;fillColor=#e3c800;strokeColor=#B09500;exitX=0.011;exitY=0.599;exitDx=0;exitDy=0;exitPerimeter=0;" edge="1" parent="22" source="211" target="31">
                    <mxGeometry relative="1" as="geometry">
                        <mxPoint x="190" y="205" as="sourcePoint"/>
                        <mxPoint x="170" y="205" as="targetPoint"/>
                    </mxGeometry>
                </mxCell>
                <mxCell id="214" style="edgeStyle=none;rounded=0;html=1;fillColor=#e51400;strokeColor=#B20000;exitX=1;exitY=0.5;exitDx=0;exitDy=0;entryX=-0.004;entryY=0.357;entryDx=0;entryDy=0;entryPerimeter=0;" edge="1" parent="22" source="30" target="211">
                    <mxGeometry relative="1" as="geometry">
                        <mxPoint x="170" y="145" as="sourcePoint"/>
                        <mxPoint x="317" y="134" as="targetPoint"/>
                    </mxGeometry>
                </mxCell>
                <mxCell id="215" style="edgeStyle=none;rounded=0;html=1;fillColor=#e51400;strokeColor=#B20000;exitX=1;exitY=0.5;exitDx=0;exitDy=0;entryX=-0.004;entryY=0.357;entryDx=0;entryDy=0;entryPerimeter=0;" edge="1" parent="22">
                    <mxGeometry relative="1" as="geometry">
                        <mxPoint x="290" y="69.70999999999998" as="sourcePoint"/>
                        <mxPoint x="317" y="69.70999999999998" as="targetPoint"/>
                    </mxGeometry>
                </mxCell>
                <mxCell id="32" style="edgeStyle=none;rounded=0;html=1;entryX=0;entryY=0.5;entryDx=0;entryDy=0;fillColor=#e51400;strokeColor=#B20000;" parent="1" source="19" target="23" edge="1">
                    <mxGeometry relative="1" as="geometry"/>
                </mxCell>
                <mxCell id="35" style="edgeStyle=none;rounded=0;html=1;fillColor=#e3c800;strokeColor=#B09500;" parent="1" source="29" edge="1">
                    <mxGeometry relative="1" as="geometry">
                        <mxPoint x="380" y="550" as="targetPoint"/>
                    </mxGeometry>
                </mxCell>
                <mxCell id="36" style="edgeStyle=none;rounded=0;html=1;entryX=0;entryY=0.5;entryDx=0;entryDy=0;fillColor=#e51400;strokeColor=#B20000;" parent="1" source="20" target="25" edge="1">
                    <mxGeometry relative="1" as="geometry"/>
                </mxCell>
                <mxCell id="38" style="edgeStyle=none;rounded=0;html=1;fillColor=#76608a;strokeColor=#000000;" parent="1" source="16" target="14" edge="1">
                    <mxGeometry relative="1" as="geometry">
                        <Array as="points">
                            <mxPoint x="231" y="787"/>
                        </Array>
                    </mxGeometry>
                </mxCell>
                <mxCell id="115" value="&lt;b&gt;&lt;i&gt;UDP&lt;/i&gt;&lt;/b&gt;&lt;br&gt;udp://127.0.0.1:12000" style="text;html=1;strokeColor=none;fillColor=none;align=center;verticalAlign=middle;whiteSpace=wrap;rounded=0;fontColor=#000000;" parent="1" vertex="1">
                    <mxGeometry x="689" y="750" width="82" height="30" as="geometry"/>
                </mxCell>
                <mxCell id="136" style="edgeStyle=none;rounded=0;html=1;entryX=1;entryY=0.5;entryDx=0;entryDy=0;fontColor=#000000;endArrow=classic;endFill=1;fillColor=#76608a;strokeColor=#000000;exitX=0;exitY=0.5;exitDx=0;exitDy=0;" parent="1" target="16" edge="1" source="59">
                    <mxGeometry relative="1" as="geometry">
                        <Array as="points">
                            <mxPoint x="850" y="866"/>
                            <mxPoint x="850" y="787"/>
                        </Array>
                        <mxPoint x="960" y="758" as="sourcePoint"/>
                    </mxGeometry>
                </mxCell>
                <mxCell id="152" value="Windows Service" style="swimlane;whiteSpace=wrap;html=1;fillColor=#f5f5f5;fontColor=#333333;strokeColor=#666666;" parent="1" vertex="1">
                    <mxGeometry x="1381" y="926" width="320" height="105" as="geometry"/>
                </mxCell>
                <mxCell id="153" value="Service&lt;br&gt;Routine" style="rounded=0;whiteSpace=wrap;html=1;fillColor=#dae8fc;strokeColor=#6c8ebf;fontColor=#000000;" parent="152" vertex="1">
                    <mxGeometry x="26" y="39" width="120" height="50" as="geometry"/>
                </mxCell>
                <mxCell id="195" value="Service&lt;br&gt;Handler" style="rounded=0;whiteSpace=wrap;html=1;fillColor=#dae8fc;strokeColor=#6c8ebf;fontColor=#000000;" parent="152" vertex="1">
                    <mxGeometry x="175" y="39" width="120" height="50" as="geometry"/>
                </mxCell>
                <mxCell id="162" value="" style="rounded=0;whiteSpace=wrap;html=1;fontSize=10;fillColor=#fff2cc;strokeColor=#d6b656;" parent="1" vertex="1">
                    <mxGeometry x="176" y="831" width="20" height="20" as="geometry"/>
                </mxCell>
                <mxCell id="163" value="Physical Layer" style="text;html=1;strokeColor=none;fillColor=none;align=left;verticalAlign=middle;whiteSpace=wrap;rounded=0;fontSize=12;fontColor=#000000;fontStyle=1" parent="1" vertex="1">
                    <mxGeometry x="203" y="831" width="138" height="20" as="geometry"/>
                </mxCell>
                <mxCell id="169" value="" style="rounded=0;whiteSpace=wrap;html=1;fontSize=10;fillColor=#d5e8d4;strokeColor=#82b366;" parent="1" vertex="1">
                    <mxGeometry x="176" y="860" width="20" height="20" as="geometry"/>
                </mxCell>
                <mxCell id="170" value="Data Link Layer" style="text;html=1;strokeColor=none;fillColor=none;align=left;verticalAlign=middle;whiteSpace=wrap;rounded=0;fontSize=12;fontColor=#000000;fontStyle=1" parent="1" vertex="1">
                    <mxGeometry x="203" y="860" width="138" height="20" as="geometry"/>
                </mxCell>
                <mxCell id="171" value="" style="rounded=0;whiteSpace=wrap;html=1;fontSize=10;fillColor=#dae8fc;strokeColor=#6c8ebf;" parent="1" vertex="1">
                    <mxGeometry x="176" y="889" width="20" height="20" as="geometry"/>
                </mxCell>
                <mxCell id="172" value="Processing Block" style="text;html=1;strokeColor=none;fillColor=none;align=left;verticalAlign=middle;whiteSpace=wrap;rounded=0;fontSize=12;fontColor=#000000;fontStyle=1" parent="1" vertex="1">
                    <mxGeometry x="203" y="889" width="138" height="20" as="geometry"/>
                </mxCell>
                <mxCell id="173" value="" style="rounded=0;whiteSpace=wrap;html=1;fontSize=10;fillColor=#ffe6cc;strokeColor=#d79b00;fontStyle=1" parent="1" vertex="1">
                    <mxGeometry x="176" y="918" width="20" height="20" as="geometry"/>
                </mxCell>
                <mxCell id="174" value="Task/Thread" style="text;html=1;strokeColor=none;fillColor=none;align=left;verticalAlign=middle;whiteSpace=wrap;rounded=0;fontSize=12;fontColor=#000000;fontStyle=1" parent="1" vertex="1">
                    <mxGeometry x="203" y="918" width="138" height="20" as="geometry"/>
                </mxCell>
                <mxCell id="178" value="" style="endArrow=none;html=1;rounded=0;strokeColor=#B09500;fontSize=12;fontColor=#bd7000;strokeWidth=5;fillColor=#e3c800;" parent="1" edge="1">
                    <mxGeometry width="50" height="50" relative="1" as="geometry">
                        <mxPoint x="176" y="956" as="sourcePoint"/>
                        <mxPoint x="196" y="956" as="targetPoint"/>
                    </mxGeometry>
                </mxCell>
                <mxCell id="179" value="Uplink" style="text;html=1;strokeColor=none;fillColor=none;align=left;verticalAlign=middle;whiteSpace=wrap;rounded=0;fontSize=12;fontColor=#000000;fontStyle=1" parent="1" vertex="1">
                    <mxGeometry x="203" y="945" width="138" height="20" as="geometry"/>
                </mxCell>
                <mxCell id="180" value="" style="endArrow=none;html=1;rounded=0;strokeColor=#B20000;fontSize=12;fontColor=#bd7000;strokeWidth=5;fillColor=#e51400;" parent="1" edge="1">
                    <mxGeometry width="50" height="50" relative="1" as="geometry">
                        <mxPoint x="176" y="982" as="sourcePoint"/>
                        <mxPoint x="196" y="982" as="targetPoint"/>
                    </mxGeometry>
                </mxCell>
                <mxCell id="181" value="Downlink" style="text;html=1;strokeColor=none;fillColor=none;align=left;verticalAlign=middle;whiteSpace=wrap;rounded=0;fontSize=12;fontColor=#000000;fontStyle=1" parent="1" vertex="1">
                    <mxGeometry x="203" y="971" width="138" height="20" as="geometry"/>
                </mxCell>
                <mxCell id="184" value="" style="endArrow=none;html=1;rounded=0;strokeColor=#432D57;fontSize=12;fontColor=#bd7000;strokeWidth=5;fillColor=#76608a;dashed=1;dashPattern=1 1;" parent="1" edge="1">
                    <mxGeometry width="50" height="50" relative="1" as="geometry">
                        <mxPoint x="176" y="1008" as="sourcePoint"/>
                        <mxPoint x="196" y="1008" as="targetPoint"/>
                    </mxGeometry>
                </mxCell>
                <mxCell id="185" value="Inter Process Communication" style="text;html=1;strokeColor=none;fillColor=none;align=left;verticalAlign=middle;whiteSpace=wrap;rounded=0;fontSize=12;fontColor=#000000;fontStyle=1" parent="1" vertex="1">
                    <mxGeometry x="203" y="997" width="183" height="20" as="geometry"/>
                </mxCell>
                <mxCell id="186" value="" style="endArrow=none;html=1;rounded=0;strokeColor=#000000;fontSize=12;fontColor=#bd7000;strokeWidth=5;fillColor=#f0a30a;" parent="1" edge="1">
                    <mxGeometry width="50" height="50" relative="1" as="geometry">
                        <mxPoint x="176" y="1034" as="sourcePoint"/>
                        <mxPoint x="196" y="1034" as="targetPoint"/>
                    </mxGeometry>
                </mxCell>
                <mxCell id="187" value="Other Communication" style="text;html=1;strokeColor=none;fillColor=none;align=left;verticalAlign=middle;whiteSpace=wrap;rounded=0;fontSize=12;fontColor=#000000;fontStyle=1" parent="1" vertex="1">
                    <mxGeometry x="203" y="1023" width="156" height="20" as="geometry"/>
                </mxCell>
                <mxCell id="198" value="" style="endArrow=classic;html=1;fontColor=#000000;strokeColor=#000000;startArrow=classic;startFill=1;" parent="1" source="191" edge="1">
                    <mxGeometry width="50" height="50" relative="1" as="geometry">
                        <mxPoint x="1743" y="542" as="sourcePoint"/>
                        <mxPoint x="1900" y="542" as="targetPoint"/>
                    </mxGeometry>
                </mxCell>
                <mxCell id="199" value="&lt;b&gt;&lt;i&gt;ZeroMQ&lt;/i&gt;&lt;/b&gt;&lt;br&gt;tcp://127.0.0.1:50000" style="text;html=1;strokeColor=none;fillColor=none;align=center;verticalAlign=middle;whiteSpace=wrap;rounded=0;fontColor=#000000;" parent="1" vertex="1">
                    <mxGeometry x="1782" y="504" width="82" height="30" as="geometry"/>
                </mxCell>
                <mxCell id="203" value="REP" style="text;html=1;strokeColor=none;fillColor=none;align=center;verticalAlign=middle;whiteSpace=wrap;rounded=0;fontColor=#000000;fontSize=10;" parent="1" vertex="1">
                    <mxGeometry x="1860" y="540" width="37" height="30" as="geometry"/>
                </mxCell>
                <mxCell id="204" style="edgeStyle=none;html=1;strokeColor=#000000;fontColor=#000000;startArrow=classic;startFill=1;rounded=0;" parent="1" source="196" edge="1">
                    <mxGeometry relative="1" as="geometry">
                        <mxPoint x="1900.666707356771" y="609.6667175292969" as="targetPoint"/>
                        <Array as="points">
                            <mxPoint x="1742" y="803"/>
                            <mxPoint x="1744" y="610"/>
                        </Array>
                    </mxGeometry>
                </mxCell>
                <mxCell id="205" value="&lt;b&gt;&lt;i&gt;ZeroMQ&lt;/i&gt;&lt;/b&gt;&lt;br&gt;tcp://127.0.0.1:50001" style="text;html=1;strokeColor=none;fillColor=none;align=center;verticalAlign=middle;whiteSpace=wrap;rounded=0;fontColor=#000000;" parent="1" vertex="1">
                    <mxGeometry x="1782" y="575.5" width="82" height="30" as="geometry"/>
                </mxCell>
                <mxCell id="206" value="REQ" style="text;html=1;strokeColor=none;fillColor=none;align=center;verticalAlign=middle;whiteSpace=wrap;rounded=0;fontColor=#000000;fontSize=10;" parent="1" vertex="1">
                    <mxGeometry x="1860" y="607" width="37" height="30" as="geometry"/>
                </mxCell>
                <mxCell id="212" style="edgeStyle=none;html=1;startArrow=classic;startFill=1;endArrow=none;endFill=0;" edge="1" parent="1" source="18">
                    <mxGeometry relative="1" as="geometry">
                        <mxPoint x="757" y="658" as="targetPoint"/>
                    </mxGeometry>
                </mxCell>
                <mxCell id="222" style="edgeStyle=none;html=1;entryX=1;entryY=0.5;entryDx=0;entryDy=0;startArrow=classic;startFill=1;" edge="1" parent="1" source="219" target="22">
                    <mxGeometry relative="1" as="geometry"/>
                </mxCell>
                <mxCell id="223" style="edgeStyle=none;html=1;startArrow=classic;startFill=1;entryX=0;entryY=0.5;entryDx=0;entryDy=0;" edge="1" parent="1" target="92">
                    <mxGeometry relative="1" as="geometry">
                        <mxPoint x="1020" y="546" as="sourcePoint"/>
                        <mxPoint x="1055" y="544" as="targetPoint"/>
                    </mxGeometry>
                </mxCell>
                <mxCell id="219" value="SpaceComms" style="swimlane;whiteSpace=wrap;html=1;fillColor=#f5f5f5;fontColor=#333333;strokeColor=#666666;" vertex="1" parent="1">
                    <mxGeometry x="894" y="380" width="126" height="327" as="geometry"/>
                </mxCell>
                <mxCell id="221" value="&lt;font style=&quot;font-size: 14px;&quot;&gt;Space&lt;/font&gt;&lt;div&gt;&lt;font style=&quot;font-size: 14px;&quot;&gt;Comms&lt;/font&gt;&lt;/div&gt;" style="rounded=0;whiteSpace=wrap;html=1;fillColor=#d5e8d4;strokeColor=#82b366;fontStyle=0;fontColor=#000000;" vertex="1" parent="219">
                    <mxGeometry x="18" y="42.5" width="90" height="251" as="geometry"/>
                </mxCell>
                <mxCell id="112" value="&lt;b&gt;&lt;i&gt;WebSocket&lt;/i&gt;&lt;/b&gt;&lt;br&gt;tcp://127.0.0.1:6660" style="text;html=1;strokeColor=none;fillColor=none;align=center;verticalAlign=middle;whiteSpace=wrap;rounded=0;fontColor=#000000;" parent="1" vertex="1">
                    <mxGeometry x="1004" y="319" width="82" height="30" as="geometry"/>
                </mxCell>
                <mxCell id="224" value="" style="endArrow=oval;html=1;strokeWidth=1;dashed=1;startArrow=none;startFill=0;endFill=1;" edge="1" parent="1">
                    <mxGeometry width="50" height="50" relative="1" as="geometry">
                        <mxPoint x="1036" y="543" as="sourcePoint"/>
                        <mxPoint x="1040" y="359" as="targetPoint"/>
                    </mxGeometry>
                </mxCell>
                <mxCell id="225" value="" style="endArrow=oval;html=1;strokeWidth=1;dashed=1;startArrow=none;startFill=0;endFill=1;" edge="1" parent="1">
                    <mxGeometry width="50" height="50" relative="1" as="geometry">
                        <mxPoint x="876" y="543" as="sourcePoint"/>
                        <mxPoint x="880" y="359" as="targetPoint"/>
                    </mxGeometry>
                </mxCell>
                <mxCell id="227" value="&lt;b&gt;&lt;i&gt;ZeroMQ&lt;/i&gt;&lt;/b&gt;&lt;br&gt;tcp://127.0.0.1:60000" style="text;html=1;strokeColor=none;fillColor=none;align=center;verticalAlign=middle;whiteSpace=wrap;rounded=0;fontColor=#000000;" vertex="1" parent="1">
                    <mxGeometry x="840" y="319" width="82" height="30" as="geometry"/>
                </mxCell>
                <mxCell id="243" value="Gpredict(Backup)" style="swimlane;whiteSpace=wrap;html=1;fillColor=#f5f5f5;fontColor=#333333;strokeColor=#666666;startSize=23;" vertex="1" parent="1">
                    <mxGeometry x="440" y="879" width="294" height="172" as="geometry"/>
                </mxCell>
                <mxCell id="260" value="Rotor Control" style="rounded=0;whiteSpace=wrap;html=1;fillColor=#dae8fc;strokeColor=#6c8ebf;fontColor=#000000;" vertex="1" parent="243">
                    <mxGeometry x="87" y="107" width="120" height="50" as="geometry"/>
                </mxCell>
                <mxCell id="261" value="Compensation" style="rounded=0;whiteSpace=wrap;html=1;fillColor=#dae8fc;strokeColor=#6c8ebf;fontColor=#000000;" vertex="1" parent="243">
                    <mxGeometry x="155" y="40" width="120" height="50" as="geometry"/>
                </mxCell>
                <mxCell id="263" value="Orbit Prediction" style="rounded=0;whiteSpace=wrap;html=1;fillColor=#dae8fc;strokeColor=#6c8ebf;fontColor=#000000;" vertex="1" parent="243">
                    <mxGeometry x="17" y="40" width="120" height="50" as="geometry"/>
                </mxCell>
                <mxCell id="264" style="edgeStyle=none;html=1;exitX=0.25;exitY=0;exitDx=0;exitDy=0;entryX=0.439;entryY=0.999;entryDx=0;entryDy=0;entryPerimeter=0;" edge="1" parent="1" source="243" target="16">
                    <mxGeometry relative="1" as="geometry"/>
                </mxCell>
                <mxCell id="265" value="&lt;b&gt;&lt;i&gt;UDP&lt;/i&gt;&lt;/b&gt;&lt;br&gt;udp://127.0.0.1:12001" style="text;html=1;strokeColor=none;fillColor=none;align=center;verticalAlign=middle;whiteSpace=wrap;rounded=0;fontColor=#000000;" vertex="1" parent="1">
                    <mxGeometry x="535" y="841" width="82" height="30" as="geometry"/>
                </mxCell>
            </root>
        </mxGraphModel>
    </diagram>
</mxfile>